<?xml version="1.0" standalone="no"?>
<!DOCTYPE svg PUBLIC "-//W3C//DTD SVG 20010904//EN"
 "http://www.w3.org/TR/2001/REC-SVG-20010904/DTD/svg10.dtd">
<svg version="1.0" xmlns="http://www.w3.org/2000/svg"
 width="261.000000pt" height="261.000000pt" viewBox="0 0 261.000000 261.000000"
 preserveAspectRatio="xMidYMid meet">
<metadata>
Created by potrace 1.11, written by Peter Selinger 2001-2013
</metadata>
<g transform="translate(0.000000,261.000000) scale(0.100000,-0.100000)"
fill="#000000" stroke="none">
<path d="M1173 2590 c-304 -32 -589 -173 -802 -396 -183 -191 -301 -423 -346
-678 -19 -114 -19 -328 0 -442 48 -273 182 -523 385 -718 186 -177 391 -285
639 -336 125 -25 378 -28 500 -5 255 49 486 171 672 355 155 154 254 314 324
524 150 451 30 968 -304 1306 -47 47 -113 107 -146 132 -261 197 -599 292
-922 258z m-257 -1150 l25 -55 170 345 c94 190 175 355 180 368 5 12 12 22 16
22 5 0 89 -165 188 -366 l180 -365 194 398 c107 219 198 402 203 407 4 6 8
-397 8 -894 0 -497 -4 -900 -8 -894 -5 5 -96 188 -203 407 l-194 398 -183
-371 -183 -372 -157 319 c-86 175 -169 343 -183 373 -26 53 -27 54 -37 30 -6
-14 -96 -198 -201 -410 l-190 -385 0 905 0 905 175 -355 c97 -195 187 -380
200 -410z"/>
<path d="M1157 1648 c-81 -166 -145 -303 -144 -305 2 -2 137 -2 299 -1 l295 3
-148 303 c-81 166 -149 302 -151 302 -2 0 -70 -136 -151 -302z"/>
<path d="M1856 1583 l-139 -283 139 -284 139 -283 3 283 c1 156 1 411 0 567
l-3 282 -139 -282z"/>
<path d="M621 1300 l0 -565 139 282 139 283 -139 282 -139 283 0 -565z"/>
<path d="M1010 1256 c0 -1 67 -140 149 -307 l148 -304 58 115 c32 63 100 202
151 308 l93 192 -300 0 c-164 0 -299 -2 -299 -4z"/>
</g>
</svg>
